<svg xmlns="http://www.w3.org/2000/svg" xmlns:xlink="http://www.w3.org/1999/xlink" width="500" zoomAndPan="magnify" viewBox="0 0 375 374.999991" height="500" preserveAspectRatio="xMidYMid meet" version="1.0"><defs><clipPath id="id1"><path d="M 148 196 L 192.316406 196 L 192.316406 249.871094 L 148 249.871094 Z M 148 196 " clip-rule="nonzero"/></clipPath><clipPath id="id2"><path d="M 92.652344 201.652344 L 157.890625 201.652344 L 157.890625 261.402344 L 92.652344 261.402344 Z M 92.652344 201.652344 " clip-rule="nonzero"/></clipPath><clipPath id="id3"><path d="M 192.027344 131.992188 L 282 131.992188 L 282 187.492188 L 192.027344 187.492188 Z M 192.027344 131.992188 " clip-rule="nonzero"/></clipPath><clipPath id="id4"><path d="M 231 182 L 262 182 L 262 187.492188 L 231 187.492188 Z M 231 182 " clip-rule="nonzero"/></clipPath><clipPath id="id5"><path d="M 192.027344 182 L 234 182 L 234 187.492188 L 192.027344 187.492188 Z M 192.027344 182 " clip-rule="nonzero"/></clipPath><clipPath id="id6"><path d="M 192.027344 131.992188 L 282 131.992188 L 282 187.492188 L 192.027344 187.492188 Z M 192.027344 131.992188 " clip-rule="nonzero"/></clipPath></defs><path fill="#68b4e7" d="M 121.128906 192.570312 C 121.128906 193.640625 121.382812 194.65625 121.816406 195.574219 C 122.164062 196.289062 122.625 196.941406 123.183594 197.507812 C 124.019531 198.351562 125.074219 199 126.25 199.351562 C 126.921875 199.554688 127.628906 199.660156 128.371094 199.660156 L 155.972656 199.660156 L 158.957031 196.386719 L 159.378906 195.917969 L 161.285156 197.636719 L 162.894531 199.089844 L 161.167969 200.988281 L 158.703125 203.707031 L 157.191406 205.363281 L 133.671875 231.25 C 132.980469 232.011719 132.636719 232.984375 132.703125 234 C 132.777344 235.015625 133.246094 235.941406 134.035156 236.613281 L 149.109375 249.332031 C 149.144531 249.332031 149.363281 249.296875 149.628906 249.117188 C 149.785156 249.011719 149.90625 248.878906 150.007812 248.734375 L 142.847656 232.601562 L 144.160156 231.453125 C 144.285156 231.355469 150.648438 225.8125 158.160156 219.324219 C 158.964844 218.628906 159.789062 217.925781 160.609375 217.210938 C 161.425781 216.515625 162.238281 215.8125 163.058594 215.105469 C 168.378906 210.527344 173.730469 205.949219 177.460938 202.824219 C 178.515625 201.945312 179.296875 200.832031 179.765625 199.597656 C 178.867188 199.398438 177.996094 199.054688 177.207031 198.523438 C 175.257812 197.203125 174.09375 195.019531 174.09375 192.683594 L 174.09375 189.457031 L 151.519531 180.578125 C 149.101562 182.847656 145.253906 185.476562 140.394531 185.476562 L 138.019531 185.476562 L 138.019531 180.75 L 140.394531 180.75 C 142.746094 180.75 144.828125 179.769531 146.480469 178.597656 L 138.300781 175.378906 L 132.824219 145.773438 L 137.484375 144.914062 L 137.757812 146.371094 L 142.492188 171.949219 L 150.226562 174.988281 L 154.757812 176.773438 L 178.121094 185.953125 L 178.84375 186.238281 L 178.84375 192.683594 C 178.84375 193.460938 179.222656 194.167969 179.878906 194.617188 C 179.902344 194.632812 179.9375 194.640625 179.960938 194.65625 C 180.636719 195.082031 181.441406 195.164062 182.1875 194.871094 L 182.664062 194.738281 L 184.769531 194.378906 L 186.621094 194.066406 C 186.875 193.9375 187.105469 193.765625 187.292969 193.570312 C 187.796875 193.050781 188.050781 192.324219 187.917969 191.578125 L 187.796875 190.824219 L 187.152344 187.066406 L 186.347656 182.300781 L 175.703125 176.722656 L 170.722656 174.109375 L 168.484375 172.9375 L 165.789062 171.523438 L 161.589844 169.328125 L 150.105469 163.308594 L 149.085938 139.597656 L 148.921875 135.957031 L 153.664062 135.75 L 154.734375 160.394531 L 163.734375 165.109375 L 171.394531 150.03125 L 170.613281 148.484375 C 169.941406 147.160156 169.71875 145.699219 169.925781 144.285156 C 163.957031 141.964844 159.664062 135.890625 159.664062 128.757812 C 159.664062 128.152344 159.699219 127.542969 159.761719 126.945312 C 150.910156 127.707031 140.726562 129.394531 137.257812 132.800781 C 130.144531 139.789062 121.128906 160.425781 121.128906 173.667969 L 121.128906 192.570312 " fill-opacity="1" fill-rule="nonzero"/><path fill="#68b4e7" d="M 173.0625 157.214844 L 169.777344 163.683594 L 167.933594 167.304688 L 169.175781 167.960938 L 171.410156 169.132812 L 173.640625 170.300781 L 175.003906 171.015625 C 176.492188 167.542969 180.027344 159.664062 183.710938 154.046875 L 183.710938 145.300781 C 183.710938 144.480469 183.28125 143.757812 182.625 143.332031 C 182.238281 143.089844 181.769531 142.941406 181.277344 142.941406 L 177.035156 142.941406 C 176.523438 142.941406 176.128906 143.070312 175.816406 143.253906 C 175.347656 143.515625 175.070312 143.882812 174.9375 144.085938 C 174.816406 144.300781 174.601562 144.726562 174.585938 145.265625 C 174.585938 145.59375 174.652344 145.960938 174.847656 146.347656 L 176.378906 149.363281 L 176.722656 150.03125 L 176.351562 150.746094 L 173.0625 157.214844 " fill-opacity="1" fill-rule="nonzero"/><path fill="#68b4e7" d="M 170.703125 139.46875 C 171.183594 139.707031 171.667969 139.917969 172.175781 140.082031 C 172.457031 139.828125 172.761719 139.597656 173.082031 139.394531 C 173.769531 138.9375 174.542969 138.601562 175.367188 138.410156 C 175.910156 138.289062 176.46875 138.214844 177.035156 138.214844 L 181.277344 138.214844 C 181.425781 138.214844 181.574219 138.222656 181.71875 138.230469 C 184.382812 136.078125 186.117188 132.636719 186.117188 128.757812 C 186.117188 122.238281 181.25 116.9375 175.265625 116.9375 C 171.675781 116.9375 168.503906 118.855469 166.519531 121.777344 C 166.011719 122.53125 165.582031 123.351562 165.246094 124.21875 C 164.949219 124.980469 164.738281 125.785156 164.597656 126.609375 C 164.480469 127.308594 164.40625 128.027344 164.40625 128.757812 C 164.40625 133.5 166.996094 137.585938 170.703125 139.46875 " fill-opacity="1" fill-rule="nonzero"/><path fill="#68b4e7" d="M 129.414062 122.710938 L 121.257812 113.605469 L 117.714844 116.75 L 125.871094 125.859375 L 129.414062 122.710938 " fill-opacity="1" fill-rule="nonzero"/><g clip-path="url(#id1)"><path fill="#68b4e7" d="M 190.695312 196.820312 C 190 197.546875 189.152344 198.164062 188.171875 198.546875 L 187.695312 198.679688 L 184.792969 199.171875 C 184.261719 201.988281 182.78125 204.558594 180.519531 206.441406 C 176.015625 210.21875 169.152344 216.097656 162.828125 221.542969 C 162.007812 222.257812 161.195312 222.96875 160.386719 223.65625 C 159.550781 224.386719 158.734375 225.089844 157.9375 225.777344 C 153.835938 229.324219 150.382812 232.320312 148.601562 233.867188 L 152.226562 242.050781 L 157.230469 246.136719 L 159.542969 248.027344 L 161.105469 249.304688 C 161.167969 249.332031 161.390625 249.296875 161.644531 249.117188 C 161.738281 249.0625 161.820312 248.988281 161.882812 248.914062 C 161.957031 248.832031 162.023438 248.75 162.074219 248.660156 L 161.910156 248.175781 L 159.753906 241.820312 L 157.601562 235.472656 L 157.394531 234.84375 L 157.632812 234.640625 L 158.605469 233.804688 C 158.636719 233.777344 159.164062 233.320312 160.074219 232.542969 C 160.71875 231.992188 161.554688 231.28125 162.527344 230.445312 C 168.988281 224.925781 181.910156 213.894531 189.488281 207.554688 C 191.304688 206.042969 192.324219 203.828125 192.308594 201.496094 C 192.292969 199.792969 191.714844 198.164062 190.695312 196.820312 " fill-opacity="1" fill-rule="nonzero"/></g><path fill="#68b4e7" d="M 121.332031 130.722656 L 111.050781 124.832031 L 108.683594 128.9375 L 118.972656 134.824219 L 121.332031 130.722656 " fill-opacity="1" fill-rule="nonzero"/><g clip-path="url(#id2)"><path fill="#68b4e7" d="M 154.503906 250.296875 C 153.886719 251.804688 152.652344 253.058594 151.082031 253.664062 C 149.289062 254.367188 147.410156 254.089844 146.042969 252.933594 L 130.96875 240.214844 C 129.191406 238.71875 128.125 236.621094 127.96875 234.3125 C 127.820312 232.011719 128.589844 229.789062 130.152344 228.070312 L 151.675781 204.386719 L 128.371094 204.386719 C 125.515625 204.386719 122.902344 203.394531 120.839844 201.757812 L 106.890625 210.4375 L 106.890625 223.363281 L 121.695312 212.929688 L 124.433594 216.785156 L 106.398438 229.503906 L 96.53125 245.054688 L 109.265625 251.402344 L 124.554688 243.777344 L 126.683594 248.011719 L 109.265625 256.683594 L 95.289062 249.722656 L 92.710938 261.132812 L 92.652344 261.402344 L 156.707031 261.402344 L 156.714844 261.132812 L 157.027344 252.089844 L 154.722656 250.199219 L 154.503906 250.296875 " fill-opacity="1" fill-rule="nonzero"/></g><path fill="#68b4e7" d="M 117.042969 141.171875 L 105.03125 138.746094 L 104.09375 143.382812 L 116.097656 145.808594 L 117.042969 141.171875 " fill-opacity="1" fill-rule="nonzero"/><g clip-path="url(#id3)"><path fill="#ffffff" d="M 281.46875 133.96875 C 281.410156 133.882812 281.34375 133.808594 281.273438 133.734375 L 281.277344 133.726562 L 281.199219 133.660156 C 281.199219 133.65625 281.195312 133.65625 281.191406 133.652344 C 281.175781 133.636719 281.148438 133.613281 281.109375 133.582031 C 280.785156 133.296875 279.773438 132.421875 279.667969 132.347656 C 279.34375 132.117188 278.960938 131.992188 278.558594 131.992188 C 278.558594 131.992188 278.554688 131.992188 278.554688 131.992188 L 254.726562 132.054688 C 253.925781 132.058594 253.203125 132.566406 252.925781 133.320312 L 235.738281 180.144531 C 235.484375 180.835938 235.636719 181.585938 236.136719 182.125 L 236.136719 182.128906 L 236.210938 182.203125 C 236.269531 182.257812 236.332031 182.308594 236.390625 182.355469 L 236.484375 182.4375 L 192.125 182.4375 L 192.125 185.222656 C 192.125 186.480469 193.144531 187.5 194.394531 187.5 L 259.304688 187.5 C 260.558594 187.5 261.574219 186.480469 261.574219 185.222656 L 261.574219 183.835938 L 262.710938 183.832031 C 263.511719 183.832031 264.234375 183.324219 264.511719 182.570312 L 281.699219 135.742188 C 281.921875 135.140625 281.835938 134.496094 281.46875 133.96875 Z M 224.046875 183.65625 Z M 224.046875 183.65625 " fill-opacity="1" fill-rule="nonzero"/></g><g clip-path="url(#id4)"><path fill="#68b4e7" d="M 261.457031 183.714844 L 261.457031 185.222656 C 261.457031 186.414062 260.492188 187.382812 259.304688 187.382812 L 232 187.382812 L 231.949219 187.152344 C 232.683594 186.785156 233.140625 186.042969 233.140625 185.222656 L 233.140625 182.554688 L 236.8125 182.554688 L 237.570312 183.207031 C 237.921875 183.574219 238.382812 183.773438 238.878906 183.773438 Z M 261.457031 183.714844 " fill-opacity="1" fill-rule="nonzero"/></g><g clip-path="url(#id5)"><path fill="#68b4e7" d="M 192.246094 182.554688 L 192.246094 185.222656 C 192.246094 186.414062 193.210938 187.382812 194.394531 187.382812 L 230.992188 187.382812 C 232.175781 187.382812 233.140625 186.414062 233.140625 185.222656 L 233.140625 182.554688 Z M 222.722656 183.773438 C 222.722656 183.773438 223.5 186.023438 223.5 186.023438 Z M 224.046875 183.65625 L 224.046875 183.773438 L 224.824219 186.023438 L 224.046875 183.773438 C 224.046875 183.773438 224.046875 183.660156 224.046875 183.65625 Z M 226.691406 183.773438 C 226.691406 183.773438 227.46875 186.023438 227.46875 186.023438 Z M 226.691406 183.773438 " fill-opacity="1" fill-rule="nonzero"/></g><path fill="#68b4e7" d="M 280.71875 133.398438 L 280.265625 133.304688 C 280.132812 133.277344 280.011719 133.265625 279.894531 133.265625 L 256.0625 133.328125 C 255.3125 133.328125 254.632812 133.804688 254.375 134.511719 L 237.1875 181.339844 C 237.058594 181.6875 237.039062 182.054688 237.128906 182.40625 C 237.132812 182.429688 237.144531 182.457031 237.152344 182.480469 L 237.183594 182.582031 L 237.339844 183.007812 L 236.460938 182.257812 C 236.410156 182.21875 236.359375 182.175781 236.308594 182.128906 L 236.28125 182.101562 C 235.769531 181.59375 235.605469 180.859375 235.851562 180.1875 L 253.039062 133.359375 C 253.300781 132.652344 253.976562 132.179688 254.726562 132.175781 L 278.554688 132.113281 C 278.9375 132.113281 279.296875 132.230469 279.601562 132.449219 C 279.621094 132.460938 279.671875 132.496094 280.367188 133.097656 Z M 280.71875 133.398438 " fill-opacity="1" fill-rule="nonzero"/><path fill="#68b4e7" d="M 281.371094 134.039062 C 281.328125 133.976562 281.28125 133.917969 281.234375 133.863281 C 281.207031 133.835938 281.183594 133.808594 281.15625 133.785156 L 281.140625 133.769531 C 281.109375 133.738281 281.074219 133.710938 281.03125 133.671875 C 280.707031 133.40625 280.316406 133.265625 279.890625 133.265625 L 256.0625 133.328125 C 255.3125 133.328125 254.632812 133.804688 254.375 134.511719 L 237.1875 181.339844 C 237.050781 181.707031 237.039062 182.097656 237.152344 182.480469 C 237.164062 182.519531 237.175781 182.558594 237.191406 182.597656 C 237.203125 182.640625 237.222656 182.679688 237.246094 182.726562 C 237.296875 182.835938 237.347656 182.921875 237.402344 183 C 237.421875 183.03125 237.441406 183.054688 237.464844 183.082031 L 237.480469 183.101562 C 237.507812 183.136719 237.535156 183.167969 237.5625 183.199219 C 237.59375 183.234375 237.625 183.261719 237.65625 183.292969 C 237.988281 183.601562 238.421875 183.773438 238.878906 183.773438 L 238.882812 183.773438 L 262.710938 183.710938 C 263.460938 183.710938 264.140625 183.234375 264.398438 182.527344 L 281.585938 135.703125 C 281.792969 135.136719 281.714844 134.53125 281.371094 134.039062 Z M 258.367188 160.578125 C 258.152344 160.019531 258.128906 159.289062 258.316406 158.519531 C 258.128906 159.289062 258.152344 160.019531 258.367188 160.578125 Z M 258.640625 161.078125 C 258.53125 160.9375 258.441406 160.773438 258.371094 160.589844 C 258.441406 160.773438 258.53125 160.9375 258.640625 161.078125 C 258.753906 161.21875 258.878906 161.332031 259.023438 161.414062 C 258.878906 161.332031 258.753906 161.21875 258.640625 161.078125 Z M 262.550781 158.519531 C 262.347656 159.363281 261.929688 160.128906 261.417969 160.683594 C 261.929688 160.128906 262.347656 159.363281 262.550781 158.519531 Z M 262.675781 157.410156 C 262.660156 156.828125 262.507812 156.324219 262.226562 155.964844 C 262.128906 155.84375 262.023438 155.742188 261.902344 155.660156 C 262.023438 155.742188 262.128906 155.84375 262.226562 155.964844 C 262.507812 156.324219 262.660156 156.828125 262.675781 157.410156 Z M 262.671875 157.496094 C 262.671875 157.585938 262.671875 157.675781 262.667969 157.769531 C 262.671875 157.675781 262.671875 157.585938 262.671875 157.496094 Z M 262.671875 157.496094 " fill-opacity="1" fill-rule="nonzero"/><g clip-path="url(#id6)"><path fill="#ffffff" d="M 281.46875 133.96875 C 281.410156 133.882812 281.34375 133.808594 281.273438 133.734375 L 281.277344 133.726562 L 281.199219 133.660156 C 281.199219 133.65625 281.195312 133.65625 281.191406 133.652344 C 281.175781 133.636719 281.148438 133.613281 281.109375 133.582031 C 280.785156 133.296875 279.773438 132.421875 279.667969 132.347656 C 279.34375 132.117188 278.960938 131.992188 278.558594 131.992188 C 278.558594 131.992188 278.554688 131.992188 278.554688 131.992188 L 254.726562 132.054688 C 253.925781 132.058594 253.203125 132.566406 252.925781 133.320312 L 235.738281 180.144531 C 235.484375 180.835938 235.636719 181.585938 236.136719 182.125 L 236.136719 182.128906 L 236.210938 182.203125 C 236.269531 182.257812 236.332031 182.308594 236.390625 182.355469 L 236.484375 182.4375 L 192.125 182.4375 L 192.125 185.222656 C 192.125 186.480469 193.144531 187.5 194.394531 187.5 L 259.304688 187.5 C 260.558594 187.5 261.574219 186.480469 261.574219 185.222656 L 261.574219 183.835938 L 262.710938 183.832031 C 263.511719 183.832031 264.234375 183.324219 264.511719 182.570312 L 281.699219 135.742188 C 281.921875 135.140625 281.835938 134.496094 281.46875 133.96875 Z M 281.472656 135.660156 L 264.285156 182.484375 C 264.042969 183.144531 263.410156 183.589844 262.710938 183.589844 L 261.574219 183.59375 L 261.335938 183.59375 L 238.882812 183.652344 C 238.882812 183.652344 238.878906 183.652344 238.878906 183.652344 C 238.445312 183.652344 238.042969 183.492188 237.738281 183.203125 C 237.707031 183.175781 237.679688 183.148438 237.652344 183.117188 C 237.625 183.089844 237.597656 183.058594 237.574219 183.027344 C 237.550781 182.996094 237.523438 182.964844 237.5 182.933594 C 237.441406 182.851562 237.398438 182.765625 237.355469 182.675781 C 237.335938 182.636719 237.316406 182.597656 237.300781 182.554688 C 237.285156 182.515625 237.273438 182.476562 237.261719 182.4375 C 237.164062 182.09375 237.171875 181.730469 237.300781 181.378906 L 254.488281 134.554688 C 254.730469 133.894531 255.363281 133.449219 256.0625 133.449219 L 279.890625 133.386719 C 279.890625 133.386719 279.894531 133.386719 279.894531 133.386719 C 280.292969 133.386719 280.660156 133.523438 280.957031 133.765625 C 280.992188 133.792969 281.023438 133.824219 281.054688 133.855469 C 281.085938 133.882812 281.117188 133.910156 281.144531 133.941406 C 281.1875 133.992188 281.234375 134.050781 281.273438 134.109375 C 281.59375 134.566406 281.667969 135.132812 281.472656 135.660156 Z M 261.335938 185.222656 C 261.335938 186.347656 260.425781 187.261719 259.304688 187.261719 L 232 187.261719 C 232.746094 186.886719 233.261719 186.117188 233.261719 185.222656 L 233.261719 182.675781 L 236.765625 182.675781 L 237.492188 183.296875 C 237.851562 183.679688 238.34375 183.894531 238.878906 183.894531 C 238.882812 183.894531 238.882812 183.894531 238.882812 183.894531 L 261.335938 183.835938 Z M 194.394531 187.261719 C 193.277344 187.261719 192.367188 186.347656 192.367188 185.222656 L 192.367188 182.675781 L 233.019531 182.675781 L 233.019531 185.222656 C 233.019531 186.347656 232.109375 187.261719 230.992188 187.261719 Z M 236.367188 182.015625 C 235.886719 181.542969 235.734375 180.855469 235.964844 180.226562 L 253.152344 133.402344 C 253.394531 132.742188 254.027344 132.296875 254.726562 132.296875 L 278.554688 132.234375 C 278.554688 132.234375 278.558594 132.234375 278.558594 132.234375 C 278.910156 132.234375 279.246094 132.339844 279.53125 132.546875 C 279.582031 132.582031 279.910156 132.863281 280.289062 133.1875 C 280.160156 133.164062 280.03125 133.144531 279.894531 133.144531 C 279.894531 133.144531 279.890625 133.144531 279.890625 133.144531 L 256.0625 133.207031 C 255.261719 133.210938 254.539062 133.71875 254.261719 134.472656 L 237.074219 181.296875 C 236.9375 181.671875 236.917969 182.066406 237.011719 182.4375 C 237.023438 182.476562 237.039062 182.515625 237.050781 182.554688 C 237.058594 182.578125 237.0625 182.601562 237.070312 182.621094 L 236.996094 182.554688 L 236.855469 182.4375 L 236.539062 182.167969 C 236.488281 182.128906 236.4375 182.085938 236.390625 182.039062 Z M 222.609375 183.8125 C 222.589844 183.75 222.621094 183.683594 222.683594 183.660156 C 222.746094 183.640625 222.816406 183.671875 222.835938 183.734375 L 223.613281 185.984375 C 223.636719 186.046875 223.601562 186.117188 223.539062 186.136719 C 223.527344 186.140625 223.511719 186.144531 223.5 186.144531 C 223.449219 186.144531 223.402344 186.113281 223.386719 186.0625 Z M 226.582031 183.8125 C 226.558594 183.75 226.589844 183.683594 226.652344 183.660156 C 226.71875 183.640625 226.785156 183.671875 226.808594 183.734375 L 227.585938 185.984375 C 227.605469 186.046875 227.574219 186.117188 227.511719 186.136719 C 227.496094 186.140625 227.484375 186.144531 227.46875 186.144531 C 227.421875 186.144531 227.375 186.113281 227.355469 186.0625 Z M 223.933594 183.8125 C 223.910156 183.75 223.945312 183.683594 224.007812 183.660156 C 224.070312 183.640625 224.136719 183.671875 224.160156 183.734375 L 224.9375 185.984375 C 224.957031 186.046875 224.925781 186.117188 224.863281 186.136719 C 224.851562 186.140625 224.835938 186.144531 224.824219 186.144531 C 224.773438 186.144531 224.726562 186.113281 224.710938 186.0625 Z M 225.257812 183.8125 C 225.234375 183.75 225.269531 183.683594 225.332031 183.660156 C 225.394531 183.640625 225.460938 183.671875 225.484375 183.734375 L 226.261719 185.984375 C 226.28125 186.046875 226.25 186.117188 226.1875 186.136719 C 226.171875 186.140625 226.160156 186.144531 226.148438 186.144531 C 226.097656 186.144531 226.050781 186.113281 226.035156 186.0625 Z M 261.171875 155.324219 C 259.949219 155.324219 258.617188 156.746094 258.199219 158.492188 C 257.945312 159.554688 258.074219 160.546875 258.546875 161.152344 C 258.839844 161.519531 259.234375 161.71875 259.695312 161.71875 C 260.917969 161.71875 262.25 160.296875 262.667969 158.546875 C 262.921875 157.484375 262.792969 156.492188 262.320312 155.890625 C 262.027344 155.519531 261.628906 155.324219 261.171875 155.324219 Z M 262.433594 158.492188 C 262.039062 160.136719 260.8125 161.476562 259.695312 161.476562 C 259.3125 161.476562 258.980469 161.3125 258.734375 161 C 258.308594 160.457031 258.195312 159.539062 258.433594 158.546875 C 258.824219 156.902344 260.054688 155.5625 261.171875 155.5625 C 261.554688 155.5625 261.886719 155.726562 262.128906 156.039062 C 262.558594 156.582031 262.671875 157.5 262.433594 158.492188 Z M 262.433594 158.492188 " fill-opacity="1" fill-rule="nonzero"/></g></svg>